<svg width="22" height="35" viewBox="0 0 22 35" fill="none" xmlns="http://www.w3.org/2000/svg">
<path d="M11 0C4.93389 0 0 4.90585 0 10.9375V26.25C0 27.0564 0.657153 27.7082 1.46658 27.7082C2.27627 27.7082 2.93342 27.0564 2.93342 26.25V10.9375C2.93342 6.51577 6.55166 2.91676 11 2.91676C15.4483 2.91676 19.0666 6.51577 19.0666 10.9375V26.9793C19.0666 29.7937 16.764 32.0832 13.9334 32.0832C11.1026 32.0832 8.8 29.7937 8.8 26.9793V12.3957C8.8 11.1898 9.78694 10.2082 11 10.2082C12.2131 10.2082 13.2 11.1898 13.2 12.3957V26.25C13.2 27.0564 13.8572 27.7082 14.6666 27.7082C15.4763 27.7082 16.1334 27.0564 16.1334 26.25V12.3957C16.1334 9.58126 13.8306 7.29176 11 7.29176C8.16943 7.29176 5.86658 9.58126 5.86658 12.3957V26.9793C5.86658 31.4007 9.48481 35 13.9334 35C18.3818 35 22 31.4007 22 26.9793V10.9375C22 4.90585 17.0661 0 11 0Z" fill="#66A91E"/>
</svg>
