<svg width="55" height="58" viewBox="0 0 55 58" fill="none" xmlns="http://www.w3.org/2000/svg">
<path d="M55 35C55 32.505 53.625 31.338 52.285 30.767C53.335 29.85 54 28.501 54 27C54 24.243 51.757 22 49 22H34.634L35.363 18.59C36.336 14.041 35.697 8.874 35.479 7.399C34.961 3.906 31.872 0 28.513 0H28.274C26.678 0 24 0.909 24 7C24 15.023 21.998 18.694 20.319 20.36C18.672 21.994 17.088 21.976 17 22H16V20H0V58H16V56H44C46.757 56 49 53.757 49 51C49 49.836 48.6 48.764 47.931 47.913C50.245 47.476 52 45.439 52 43C52 41.836 51.6 40.764 50.931 39.913C53.245 39.476 55 37.439 55 35ZM2 56V22H14V56H2ZM50 38H47H39C38.448 38 38 38.447 38 39C38 39.553 38.448 40 39 40H47C48.654 40 50 41.346 50 43C50 44.654 48.654 46 47 46H45H44H37C36.448 46 36 46.447 36 47C36 47.553 36.448 48 37 48H44C45.654 48 47 49.346 47 51C47 52.654 45.654 54 44 54H16V24L16.969 23.999C17.066 24.018 19.389 24.049 21.651 21.855C24.537 19.059 26 14.061 26 7C26 5.133 26.295 2 28.274 2H28.513C30.744 2 33.121 5.13 33.5 7.691C33.707 9.083 34.31 13.951 33.407 18.171L32.162 24H49C50.654 24 52 25.346 52 27C52 28.654 50.654 30 49 30H47H46H39C38.448 30 38 30.447 38 31C38 31.553 38.448 32 39 32H46C46.883 32 48.825 32.04 49.854 32.193C52.465 32.58 53 33.595 53 35C53 36.654 51.654 38 50 38Z" fill="#3C3C3C"/>
</svg>
