<svg width="62" height="60" viewBox="0 0 62 60" fill="none" xmlns="http://www.w3.org/2000/svg">
<path d="M31.5566 22.852C31.4274 22.824 31.2949 22.819 31.1641 22.8386C29.8532 22.686 28.8643 21.5769 28.8621 20.2576C28.8621 19.6253 28.3495 19.1127 27.7172 19.1127C27.085 19.1127 26.5724 19.6253 26.5724 20.2576C26.5757 22.4607 28.0493 24.3904 30.1736 24.9734V26.1183C30.1736 26.7506 30.6862 27.2632 31.3184 27.2632C31.9507 27.2632 32.4633 26.7506 32.4633 26.1183V25.0428C34.9151 24.5296 36.5815 22.246 36.3238 19.7545C36.0656 17.263 33.9665 15.3696 31.4615 15.369C30.026 15.369 28.8621 14.2051 28.8621 12.7696C28.8621 11.334 30.026 10.1702 31.4615 10.1702C32.8971 10.1702 34.0609 11.334 34.0609 12.7696C34.0609 13.4018 34.5736 13.9145 35.2058 13.9145C35.8381 13.9145 36.3507 13.4018 36.3507 12.7696C36.3473 10.4564 34.7267 8.46126 32.4633 7.98386V6.94186C32.4633 6.30961 31.9507 5.797 31.3184 5.797C30.6862 5.797 30.1736 6.30961 30.1736 6.94186V8.05374C27.8112 8.69884 26.2906 10.9925 26.616 13.4197C26.9413 15.847 29.0125 17.6587 31.4615 17.6582C32.8781 17.6582 34.0336 18.7924 34.0593 20.2084C34.0855 21.6244 32.972 22.8006 31.5566 22.852Z" fill="#3C3C3C"/>
<path d="M14.8594 16.6016C14.8594 25.7706 22.292 33.2033 31.461 33.2033C40.63 33.2033 48.0626 25.7706 48.0626 16.6016C48.0626 7.43266 40.63 0 31.461 0C22.2965 0.0100622 14.87 7.43713 14.8594 16.6016ZM31.461 2.28973C39.3655 2.28973 45.7729 8.69715 45.7729 16.6016C45.7729 24.5061 39.3655 30.9135 31.461 30.9135C23.5565 30.9135 17.1491 24.5061 17.1491 16.6016C17.158 8.70107 23.5604 2.29867 31.461 2.28973Z" fill="#3C3C3C"/>
<path d="M53.7067 41.0257L44.7384 45.2631C43.5002 42.9599 41.1249 41.4942 38.511 41.4204L30.232 41.1929C28.9211 41.1554 27.6348 40.8234 26.4692 40.2213L25.6268 39.7847C21.3134 37.5364 16.1722 37.542 11.8633 39.7993L11.9158 37.8908C11.9332 37.2585 11.4351 36.7319 10.8028 36.7146L1.72444 36.4647C1.0922 36.4474 0.566162 36.9455 0.548833 37.5777L0.000438819 57.4999C-0.0168905 58.1322 0.481192 58.6587 1.11344 58.6761L10.1918 58.926H10.2231C10.8437 58.926 11.3512 58.4323 11.368 57.8124L11.3943 56.8593L13.7528 55.5965C14.6785 55.0984 15.7607 54.9799 16.772 55.2661L30.8558 59.2189C30.8804 59.2261 30.905 59.2317 30.9302 59.2373C31.9481 59.4503 32.9857 59.5571 34.0254 59.5565C36.228 59.5576 38.4048 59.083 40.4066 58.164C40.4558 58.1417 40.5033 58.1154 40.5486 58.0858L60.9689 44.8774C61.4776 44.5481 61.6419 43.8801 61.344 43.3524C59.8279 40.6624 56.4654 39.6377 53.7067 41.0257ZM2.32091 56.4188L2.80614 38.7852L9.59537 38.9719L9.11015 56.606L2.32091 56.4188ZM39.3752 56.1191C36.8882 57.2416 34.1104 57.5513 31.4372 57.0052L17.3914 53.0624C15.8105 52.6158 14.1184 52.8008 12.6722 53.5784L11.467 54.2241L11.7895 42.4999C15.6087 39.9597 20.5068 39.6986 24.5742 41.8179L25.4166 42.2545C26.8891 43.0147 28.513 43.434 30.1694 43.482L38.4489 43.7096C40.7744 43.7766 42.7494 45.4325 43.2212 47.711L30.8888 47.3706C30.2566 47.3532 29.7305 47.8519 29.7126 48.4836C29.6953 49.1158 30.194 49.6424 30.8256 49.6597L44.4354 50.0343H44.4673C45.0872 50.0337 45.5943 49.5401 45.611 48.9207C45.625 48.4232 45.5881 47.9251 45.5003 47.4354L54.6989 43.0891C54.7079 43.0851 54.7168 43.0807 54.7258 43.0762C56.0305 42.416 57.6081 42.6368 58.6814 43.6302L39.3752 56.1191Z" fill="#3C3C3C"/>
</svg>
