<svg width="57" height="51" viewBox="0 0 57 51" fill="none" xmlns="http://www.w3.org/2000/svg">
<path d="M56.6625 0H0V43.4412H35.8863V50.0518C35.8863 50.4295 36.0752 50.8073 36.4529 50.9017C36.8306 51.0906 37.2084 50.9961 37.4918 50.7128L42.4969 45.7077L47.5021 50.7129C47.691 50.9018 47.8798 50.9962 48.1631 50.9962C48.2575 50.9962 48.4464 50.9962 48.5408 50.9018C48.9185 50.8074 49.1075 50.4296 49.1075 50.0519V43.4413H56.6625V0ZM47.2188 47.7853L43.158 43.7245C42.9691 43.5356 42.7803 43.4412 42.497 43.4412C42.2137 43.4412 42.0248 43.5356 41.836 43.7245L37.7752 47.7853V43.4412V37.4916C40.6083 39.1915 44.3858 39.1915 47.2189 37.4916V43.4412L47.2188 47.7853ZM44.0716 36.6632C44.0284 36.6722 43.9854 36.6811 43.9421 36.6894C43.8795 36.7017 43.8164 36.7126 43.7532 36.7234C43.6895 36.734 43.6259 36.7445 43.5622 36.7535C43.5123 36.7606 43.462 36.7666 43.4118 36.7727C43.3434 36.7811 43.2749 36.7894 43.2064 36.796C43.1477 36.8015 43.0886 36.8054 43.0296 36.8095C42.9714 36.8137 42.9132 36.8186 42.8551 36.8214C42.7364 36.8271 42.6171 36.8306 42.4969 36.8306C42.3773 36.8306 42.2587 36.8271 42.1406 36.8215C42.074 36.8183 42.0075 36.8129 41.941 36.8078C41.8941 36.8044 41.847 36.8014 41.8004 36.7971C41.7082 36.7883 41.6163 36.7777 41.5244 36.7655C41.5082 36.7634 41.4919 36.7616 41.4757 36.7593C41.2579 36.729 41.0412 36.6894 40.8263 36.6399C40.7165 36.6147 40.6071 36.5869 40.4983 36.5568C40.2806 36.4965 40.0653 36.4265 39.8528 36.3468C39.6403 36.2671 39.4308 36.1778 39.2249 36.0792C39.1538 36.0451 39.0838 36.0083 39.0136 35.972C38.9777 35.9532 38.941 35.9359 38.9054 35.9165C38.9023 35.9148 38.8992 35.913 38.8961 35.9112C36.5456 34.6266 34.9421 32.1295 34.9421 29.2758C34.9421 25.1205 38.3418 21.7208 42.4971 21.7208C46.6524 21.7208 50.0521 25.1205 50.0521 29.2758C50.0519 32.8911 47.4775 35.9335 44.0716 36.6632ZM54.7737 41.5524H49.1075V36.0015C50.853 34.2853 51.9406 31.9018 51.9406 29.2756C51.9406 24.0816 47.6909 19.8319 42.4969 19.8319C37.3028 19.8319 33.0532 24.0816 33.0532 29.2756C33.0532 31.9018 34.1407 34.2855 35.8863 36.0015V41.5524H1.88879V1.88868H54.7738L54.7737 41.5524Z" fill="#3C3C3C"/>
<path d="M44.3852 12.2768H12.2764C11.7097 12.2768 11.332 12.6545 11.332 13.2211C11.332 13.7878 11.7097 14.1655 12.2764 14.1655H44.3851C44.9517 14.1655 45.3294 13.7878 45.3294 13.2211C45.3294 12.6545 44.9518 12.2768 44.3852 12.2768Z" fill="#3C3C3C"/>
<path d="M33.0527 17.9431H12.2764C11.7097 17.9431 11.332 18.3208 11.332 18.8875C11.332 19.4541 11.7097 19.8318 12.2764 19.8318H33.0526C33.6192 19.8318 33.9969 19.4541 33.9969 18.8875C33.9969 18.3208 33.6193 17.9431 33.0527 17.9431Z" fill="#3C3C3C"/>
<path d="M12.2764 25.4981H30.2195C30.7861 25.4981 31.1638 25.1204 31.1638 24.5538C31.1638 23.9871 30.7861 23.6094 30.2195 23.6094H12.2764C11.7097 23.6094 11.332 23.9871 11.332 24.5538C11.332 25.1204 11.7097 25.4981 12.2764 25.4981Z" fill="#3C3C3C"/>
<path d="M12.2764 32.1087H30.2195C30.7861 32.1087 31.1638 31.731 31.1638 31.1644C31.1638 30.5977 30.7861 30.22 30.2195 30.22H12.2764C11.7097 30.22 11.332 30.5977 11.332 31.1644C11.332 31.731 11.7097 32.1087 12.2764 32.1087Z" fill="#3C3C3C"/>
</svg>
