<svg width="64" height="60" viewBox="0 0 64 60" fill="none" xmlns="http://www.w3.org/2000/svg">
<path d="M58.9493 5.84247C55.5833 2.25042 50.933 0.151185 46.0243 0.0078504C41.1156 -0.135484 36.3518 1.68886 32.7838 5.07843L31.9742 5.84675C24.962 -1.62431 13.2486 -1.97046 5.81136 5.07361C-1.62582 12.1177 -1.9704 23.8845 5.04173 31.3556L6.86475 33.2962C6.09499 35.0866 6.34099 37.1542 7.50907 38.7118C8.67715 40.2695 10.5876 41.0775 12.513 40.8283C12.187 42.5328 12.6965 44.2907 13.8823 45.553C15.0681 46.8153 16.7856 47.4281 18.4983 47.1999C18.1723 48.9041 18.6817 50.6618 19.8673 51.9239C21.0529 53.186 22.7702 53.7986 24.4826 53.5704C24.0583 55.8849 25.1627 58.2112 27.2201 59.3368C29.2774 60.4625 31.8219 60.1325 33.5273 58.519C39.6151 52.7453 39.4241 53.0336 39.9991 52.0606C41.7796 52.9407 43.8977 52.7662 45.5117 51.6063C47.1257 50.4464 47.9741 48.489 47.72 46.512C49.4163 46.8314 51.1624 46.3155 52.4166 45.1245C53.6708 43.9335 54.2816 42.2112 54.0594 40.4919C56.377 40.9195 58.704 39.7934 59.8155 37.7063C60.927 35.6191 60.5682 33.0496 58.9279 31.3502C65.6824 24.2046 65.6918 12.9995 58.9493 5.84247ZM9.4526 37.7208C8.20631 36.3905 8.26642 34.2981 9.587 33.0423L15.1339 27.7808C16.4603 26.5501 18.5258 26.6215 19.7649 27.9408C21.004 29.2602 20.9549 31.3357 19.6547 32.5943L14.1077 37.8558C12.7845 39.1081 10.7017 39.0477 9.4526 37.7208ZM15.4379 44.0923C14.1905 42.7626 14.2506 40.6691 15.5723 39.4138L21.1193 34.1524C22.4422 32.8987 24.5263 32.9596 25.7744 34.2885C27.0225 35.6174 26.9618 37.7111 25.6389 38.9649L20.092 44.2274C18.7672 45.477 16.6857 45.4142 15.4379 44.087V44.0923ZM21.4222 50.4629C20.1763 49.1327 20.2369 47.0406 21.5577 45.7854L27.1046 40.524C28.4359 39.3499 30.4534 39.4443 31.6703 40.7377C32.8872 42.0311 32.8673 44.0598 31.6254 45.3289L26.0784 50.5904C24.7561 51.8452 22.6715 51.7857 21.4222 50.4575V50.4629ZM32.0627 56.9695C31.2069 57.7807 29.9854 58.0717 28.8581 57.7328C27.7309 57.3939 26.8692 56.4767 26.5977 55.3266C26.3263 54.1765 26.6862 52.9683 27.542 52.157L33.0889 46.8945C34.4153 45.6638 36.4808 45.7351 37.7199 47.0545C38.959 48.3739 38.9098 50.4494 37.6096 51.708L32.0627 56.9695ZM57.2937 37.5557C56.6597 38.1598 55.8122 38.4851 54.9388 38.4598C54.0653 38.4345 53.2379 38.0605 52.6397 37.4207L38.4246 22.2901C38.0202 21.8595 37.3449 21.8399 36.9163 22.2461C36.4877 22.6524 36.4681 23.3308 36.8725 23.7613L51.0908 38.8909C51.8985 39.7504 52.1885 40.9775 51.8514 42.1099C51.5143 43.2424 50.6014 44.1081 49.4566 44.3811C48.3118 44.6541 47.109 44.2928 46.3012 43.4333L32.084 28.3016C31.8224 28.0231 31.4328 27.906 31.0618 27.9943C30.6909 28.0827 30.3951 28.3631 30.2858 28.7299C30.1765 29.0968 30.2703 29.4944 30.532 29.7729L44.7449 44.9003C45.8672 46.094 45.9469 47.9343 44.9321 49.2214C43.9173 50.5085 42.1157 50.8519 40.702 50.0278C40.9234 48.497 40.4817 46.9443 39.4888 45.762C38.4958 44.5798 37.0465 43.8811 35.5071 43.8427C34.3337 43.8116 34.7604 44.2574 34.7903 43.0786C34.8328 41.6331 34.3015 40.2299 33.3135 39.1782C32.3255 38.1264 30.9618 37.5123 29.5229 37.4711C28.3495 37.4336 28.7708 37.8997 28.806 36.7071C28.8479 35.2615 28.3163 33.8585 27.3282 32.8068C26.3401 31.7551 24.9765 31.141 23.5375 31.0995C22.3567 31.0663 22.7855 31.5378 22.8207 30.3355C22.8783 28.1341 21.6132 26.1137 19.6131 25.2125C17.613 24.3113 15.2697 24.706 13.6715 26.2131C6.04444 33.4452 8.67603 30.9527 8.10747 31.4917L6.59487 29.8843C0.391908 23.2746 0.697324 12.865 7.27703 6.63383C13.8567 0.40261 24.2191 0.709417 30.4221 7.3191L21.6857 15.6067C20.8573 16.4046 20.3696 17.4946 20.3256 18.6467C20.219 23.0477 26.7355 25.8188 30.7176 22.0329L38.6795 14.4847C38.8852 14.2894 39.1597 14.1842 39.4425 14.1922C39.7254 14.2003 39.9936 14.3209 40.1879 14.5276C42.2808 16.7554 55.4206 30.7437 57.4281 32.8794C58.0279 33.5173 58.3507 34.3685 58.3255 35.2455C58.3003 36.1226 57.9291 36.9537 57.2937 37.5557ZM57.4761 29.8082L41.7389 13.0563C41.1562 12.4363 40.3523 12.0742 39.5039 12.0497C38.6555 12.0252 37.8321 12.3402 37.2149 12.9256L29.2519 20.4759C28.4062 21.2778 27.2774 21.7084 26.115 21.6724C24.9527 21.6364 23.8524 21.1368 23.0575 20.2841C22.6573 19.8579 22.4424 19.2892 22.4602 18.7035C22.478 18.1179 22.7271 17.5635 23.1524 17.1626L34.2463 6.63651C40.6712 0.52648 50.7654 0.647463 57.0434 6.90974C63.3214 13.172 63.513 23.3111 57.4761 29.8082Z" fill="#3C3C3C"/>
</svg>
