<svg width="31" height="31" viewBox="0 0 31 31" fill="none" xmlns="http://www.w3.org/2000/svg">
<path d="M20.3952 8.14258H10.931C9.42042 8.14258 8.19141 9.37159 8.19141 10.8822V20.3464C8.19141 21.857 9.42042 23.0864 10.931 23.0864H20.3952C21.9059 23.0864 23.1352 21.8574 23.1352 20.3464V10.8822C23.1352 9.37159 21.9062 8.14258 20.3952 8.14258ZM15.6631 20.5339C12.9507 20.5339 10.7439 18.3271 10.7439 15.6143C10.7439 12.9019 12.9507 10.6951 15.6631 10.6951C18.3759 10.6951 20.5827 12.9019 20.5827 15.6143C20.5827 18.3267 18.3755 20.5339 15.6631 20.5339ZM20.7409 11.7122C20.0988 11.7122 19.5766 11.19 19.5766 10.5482C19.5766 9.9065 20.0988 9.38433 20.7409 9.38433C21.3826 9.38433 21.9048 9.9065 21.9048 10.5482C21.9048 11.19 21.3826 11.7122 20.7409 11.7122Z" fill="#6A453B"/>
<path d="M15.6631 12.8618C14.1457 12.8618 12.9102 14.0967 12.9102 15.6141C12.9102 17.1322 14.1457 18.3674 15.6631 18.3674C17.1812 18.3674 18.4158 17.1322 18.4158 15.6141C18.4158 14.0971 17.1809 12.8618 15.6631 12.8618Z" fill="#6A453B"/>
<path d="M15.6633 0.277344C7.19315 0.277344 0.326172 7.14433 0.326172 15.6144C0.326172 24.0845 7.19315 30.9515 15.6633 30.9515C24.1333 30.9515 31.0003 24.0845 31.0003 15.6144C31.0003 7.14433 24.1333 0.277344 15.6633 0.277344ZM24.8889 20.2269C24.8889 22.7938 22.8012 24.8815 20.2344 24.8815H11.0921C8.52561 24.8815 6.43756 22.7938 6.43756 20.2269V11.0846C6.43756 8.51813 8.52561 6.43008 11.0921 6.43008H20.2344C22.8012 6.43008 24.8889 8.51813 24.8889 11.0846V20.2269Z" fill="#6A453B"/>
</svg>
