<svg width="163" height="37" viewBox="0 0 163 37" fill="none" xmlns="http://www.w3.org/2000/svg">
<path fill-rule="evenodd" clip-rule="evenodd" d="M11.9859 0C13.763 0 15.2376 1.47461 15.2376 3.28952H15.2754L15.2376 3.40295C15.2376 3.85667 15.1242 4.31041 14.9352 4.68851C14.5192 6.4278 14.2924 8.01584 14.1411 9.49045C15.3889 8.62081 16.6744 7.59993 17.9978 6.35218C18.2625 6.01189 18.5649 5.7094 18.9431 5.44472H18.9809C19.4724 5.14224 20.0774 4.95319 20.6823 4.95319C22.4972 4.95319 23.9718 6.38998 23.9718 8.20489C23.9718 9.45263 23.2535 10.5492 22.2326 11.0785L22.2704 11.1163L22.1569 11.1541C21.8167 11.3053 21.4385 11.4188 21.0226 11.4566C19.2833 11.986 17.7331 12.5909 16.3719 13.2337C17.7709 13.8765 19.3212 14.4814 21.0983 15.0108C21.4386 15.0486 21.7788 15.162 22.0813 15.3133L22.2326 15.3511H22.1947C23.2534 15.9182 23.9718 17.0147 23.9718 18.2625C23.9718 20.0774 22.4972 21.5142 20.6823 21.5142C20.0396 21.5142 19.4346 21.3251 18.9431 21.0227L18.9053 20.9848C18.565 20.758 18.2625 20.4933 18.0356 20.153C16.6744 18.8675 15.3889 17.8466 14.1411 16.9769C14.2924 18.5272 14.557 20.1908 14.973 22.0057C15.1242 22.346 15.1998 22.6863 15.2376 23.0644L15.2754 23.2157H15.2376C15.2376 23.2535 15.2376 23.2913 15.2376 23.3291C15.2376 25.1062 13.763 26.5808 11.9859 26.5808C10.171 26.5808 8.69642 25.1062 8.69642 23.3291C8.69642 23.2913 8.69642 23.2535 8.69642 23.2157C8.73423 22.7241 8.84764 22.2704 9.0367 21.8923C9.45261 20.0774 9.7173 18.4515 9.83073 16.9013C8.54517 17.7709 7.25961 18.8296 5.89843 20.1152C5.67157 20.4177 5.40689 20.6824 5.06659 20.9092L4.99097 20.9848H4.95317C4.46163 21.2873 3.89447 21.4764 3.25169 21.4764C1.43679 21.4764 0 20.0018 0 18.1869C0 16.9391 0.680589 15.8804 1.70147 15.3133H1.73927C2.11738 15.0864 2.53329 14.973 2.98702 14.9352C4.7263 14.4058 6.27653 13.8008 7.6377 13.1959C6.23872 12.5153 4.68849 11.9481 2.87359 11.381C2.53329 11.3432 2.15518 11.2675 1.8527 11.1163L1.77708 11.0785H1.8149C0.718395 10.5492 0 9.45264 0 8.16708C0 6.35218 1.43679 4.87756 3.25169 4.87756C3.93228 4.87756 4.53725 5.10443 5.06659 5.44472V5.40692C5.14222 5.44473 5.18004 5.48253 5.21785 5.55815C5.44471 5.70939 5.63376 5.89845 5.785 6.08751C7.18399 7.41087 8.50736 8.50737 9.83073 9.41483C9.67949 7.97803 9.45263 6.4656 9.07452 4.80194C8.84766 4.34821 8.69642 3.81887 8.69642 3.28952C8.69642 1.47461 10.171 0 11.9859 0Z" fill="#66A91E"/>
<path fill-rule="evenodd" clip-rule="evenodd" d="M18.9058 29.9841C20.6829 29.9841 22.1575 31.4587 22.1575 33.2736C22.1575 35.0507 20.6829 36.5253 18.868 36.5253C18.263 36.5253 17.658 36.3362 17.1665 36.0338C13.7635 35.2776 9.90688 35.3154 6.54174 36.1472C6.20145 36.3362 5.78552 36.4875 5.3696 36.4875L5.3318 36.5253V36.4875C5.25618 36.5253 5.14275 36.5253 5.06712 36.5253C3.25222 36.5253 1.81543 35.0507 1.81543 33.2736C1.81543 31.4587 3.25222 29.9841 5.06712 29.9841C5.55866 29.9841 5.97458 30.0597 6.46612 30.3244C9.86906 31.194 13.7635 31.2318 17.2421 30.4378C17.6958 30.1731 18.263 29.9841 18.868 29.9841H18.9058Z" fill="#66A91E"/>
<path d="M36.4875 0.794068C39.2855 0.302532 42.1969 0.680637 44.768 1.73933C45.3351 2.004 46.0535 2.34429 46.0913 3.02487C46.0913 4.04576 45.7511 4.99104 45.562 5.97411C45.4864 6.39003 45.373 7.0328 44.8058 6.95718C42.6128 6.12534 40.2685 5.10445 37.8865 5.67161C36.4497 5.97409 36.0716 8.05368 37.1681 8.96113C38.4536 10.0198 40.1929 10.3223 41.6675 11.0029C43.7093 11.8725 45.7888 13.1203 46.7719 15.1999C47.9819 17.6954 47.4147 20.9471 45.4486 22.9132C43.7471 24.6525 41.2138 25.3709 38.8317 25.3331C36.374 25.2953 33.8786 24.9172 31.5721 24.0097C30.9293 23.8207 30.3244 23.2157 30.5134 22.4973C30.6268 21.552 30.8159 20.6068 31.005 19.6615C31.0428 19.2078 31.4587 18.7162 31.9502 18.9809C33.992 19.9262 36.1472 20.6068 38.378 20.6446C39.2477 20.6824 40.1929 20.4933 40.7979 19.8127C41.4028 19.0943 41.4406 17.9979 41.1003 17.1282C40.7601 16.3342 39.9282 15.8805 39.172 15.5402C36.979 14.6327 34.5591 14.0277 32.6308 12.5153C29.5682 10.1711 29.6438 4.95323 32.593 2.57117C33.6895 1.6259 35.0885 1.05874 36.4875 0.794068Z" fill="#222222"/>
<path d="M71.1597 7.82726C74.2602 6.57951 77.6253 5.78549 80.9905 6.05016C82.3517 6.16359 83.6372 6.69294 84.6203 7.6382C86.5486 6.27703 89.0441 5.93674 91.3506 6.01236C93.052 6.08798 94.8669 6.54171 96.0769 7.86508C97.249 9.11283 97.5893 10.8899 97.5893 12.5536C97.5893 16.2968 97.5893 20.0779 97.5893 23.8211C97.6271 24.3504 97.249 24.9554 96.6818 24.9176C95.2072 24.9176 93.6948 24.9554 92.2202 24.8798C91.6152 24.8042 91.464 24.237 91.464 23.7077C91.464 20.1535 91.5018 16.5615 91.464 13.0073C91.464 12.1377 91.2371 11.079 90.3675 10.7009C89.1954 10.2471 87.9098 10.7009 86.7755 11.079C86.8511 11.7218 86.8889 12.3645 86.8889 13.0073C86.8889 16.5993 86.9267 20.1913 86.8889 23.8211C86.9267 24.3126 86.662 24.8798 86.0949 24.8798C84.5825 24.9176 83.1079 24.9554 81.5955 24.8798C81.0661 24.842 80.8392 24.2748 80.877 23.7833C80.8392 20.1157 80.8771 16.4481 80.8392 12.7804C80.8392 11.9486 80.4989 10.9655 79.6293 10.663C78.5328 10.3228 77.3229 10.5874 76.2642 11.0412C76.302 15.2381 76.2642 19.3973 76.2642 23.5942C76.302 24.1236 76.1885 24.842 75.5079 24.8798C74.0333 24.9554 72.5209 24.9176 71.0463 24.9176C70.4413 24.9554 70.0633 24.3504 70.1389 23.8211C70.1011 19.0192 70.1389 14.255 70.1389 9.4531C70.0633 8.77252 70.4792 8.05412 71.1597 7.82726Z" fill="#222222"/>
<path d="M101.975 7.75124C105.076 6.5413 108.365 5.78509 111.693 6.04977C113.016 6.1632 114.339 6.69255 115.285 7.63781C117.251 6.27663 119.708 5.93634 122.053 6.01196C123.792 6.08759 125.683 6.57913 126.855 7.97812C127.951 9.22586 128.254 10.9651 128.254 12.5532C128.254 16.3342 128.291 20.0775 128.254 23.8207C128.329 24.3501 127.913 24.955 127.346 24.9172C125.947 24.9172 124.51 24.9172 123.111 24.9172C122.544 24.9172 122.091 24.4257 122.166 23.8585C122.128 20.1909 122.166 16.4855 122.128 12.7801C122.128 11.9104 121.788 10.8895 120.881 10.6249C119.708 10.2846 118.536 10.7383 117.478 11.0786C117.629 12.2129 117.553 13.385 117.591 14.5571C117.591 17.5064 117.553 20.4178 117.591 23.367C117.553 23.7829 117.591 24.2366 117.364 24.6147C116.873 25.0307 116.192 24.8794 115.625 24.9172C114.453 24.8794 113.281 25.0306 112.146 24.8416C111.579 24.6904 111.541 24.0854 111.541 23.5939C111.541 20.0775 111.541 16.5233 111.541 13.0069C111.541 12.0995 111.277 11.0029 110.331 10.6627C109.197 10.3224 107.987 10.587 106.966 11.0408C106.966 15.0865 106.966 19.1322 106.966 23.1401C106.928 23.6317 107.004 24.161 106.739 24.6147C106.286 25.0307 105.605 24.8794 105.038 24.9172C103.828 24.8794 102.58 24.9928 101.37 24.8416C100.765 24.6147 100.803 23.8963 100.803 23.367C100.803 18.6407 100.803 13.9522 100.841 9.26366C100.803 8.54526 101.333 7.94029 101.975 7.75124Z" fill="#222222"/>
<path d="M156.309 8.39446C157.406 6.80642 159.372 5.97459 161.3 6.05021C161.792 6.08802 162.434 6.01241 162.812 6.46614C163.191 7.0333 162.888 7.71387 162.85 8.31884C162.661 9.11286 162.737 9.98252 162.359 10.7009C161.981 10.9656 161.527 10.8522 161.111 10.8143C159.901 10.7009 158.616 10.7387 157.443 11.1546C157.217 11.2681 156.801 11.3059 156.876 11.6462C156.876 15.6919 156.876 19.7754 156.876 23.8211C156.914 24.3127 156.612 24.8799 156.044 24.8799C154.494 24.9177 152.944 24.9555 151.432 24.8799C150.789 24.8042 150.638 24.1236 150.675 23.5943C150.713 17.9983 150.637 12.4402 150.751 6.84424C150.978 6.65519 151.205 6.3527 151.583 6.39051C152.944 6.39051 154.267 6.31488 155.591 6.42831C156.385 6.7308 156.196 7.71388 156.309 8.39446Z" fill="#222222"/>
<path d="M50.4016 7.94075C50.5528 7.37359 50.7419 6.57959 51.4225 6.46616C52.6702 6.31491 53.918 6.42834 55.1657 6.39053C55.5816 6.42834 56.111 6.27709 56.4891 6.61738C56.6781 6.95768 56.5647 7.33579 56.4891 7.7139C55.8085 11.0412 55.2413 14.482 55.7329 17.8849C55.8841 18.9814 56.2622 20.2292 57.2831 20.7963C58.3418 21.2879 59.5895 21.0988 60.6482 20.6829C60.6104 16.2591 60.6104 11.8731 60.6482 7.48704C60.5726 6.9577 60.9885 6.35272 61.5557 6.39053C63.0303 6.39053 64.5049 6.39053 65.9795 6.39053C66.5467 6.39053 66.9626 6.95768 66.887 7.44922C66.887 12.7805 66.887 18.074 66.887 23.3675C66.9248 25.6739 66.8491 28.1694 65.488 30.1355C63.9377 32.442 61.1398 33.4629 58.4552 33.5763C55.9597 33.6519 53.4642 33.236 51.0822 32.5176C50.515 32.4041 50.0235 31.9126 50.1369 31.3077C50.2882 30.3246 50.3638 29.3037 50.6284 28.3584C50.7419 27.9047 51.2334 27.7535 51.6115 27.9425C53.5399 28.5097 55.5438 29.0768 57.6234 28.9256C58.6443 28.8122 59.6274 28.1316 60.0433 27.1863C60.4592 26.3545 60.5726 25.4092 60.6861 24.4639C59.3249 25.5226 57.51 25.5983 55.8463 25.4092C54.1448 25.2202 52.4433 24.5396 51.3847 23.1784C50.4016 21.8928 49.9857 20.3048 49.7966 18.7546C49.3807 15.1626 49.721 11.4949 50.4016 7.94075Z" fill="#222222"/>
<path d="M134.265 8.24296C136.572 6.50368 139.597 6.08776 142.395 6.46586C144.323 6.69273 146.327 7.63799 147.196 9.4907C148.293 11.9862 147.499 15.2001 145.268 16.8259C142.81 18.603 139.37 18.9055 136.61 17.7712C136.836 18.8677 137.593 19.813 138.651 20.2289C140.731 21.0607 143.075 20.8717 145.193 20.3801C145.608 20.3423 146.1 20.0776 146.516 20.3045C146.856 20.7204 146.781 21.2876 146.894 21.7791C146.97 22.4975 147.31 23.2915 146.97 23.9721C146.743 24.3124 146.365 24.4637 145.987 24.5393C143.642 25.1064 141.222 25.3333 138.84 25.1821C136.647 24.993 134.379 24.1612 132.904 22.4219C131.089 20.3423 130.635 17.4309 130.938 14.7464C131.203 12.2887 132.261 9.79319 134.265 8.24296ZM137.668 11.6459C136.874 12.4777 136.496 13.612 136.383 14.7464C138.009 15.0866 139.786 14.9732 141.26 14.1036C142.092 13.6121 142.621 12.629 142.546 11.6459C142.47 10.9275 141.752 10.4738 141.033 10.436C139.823 10.3603 138.538 10.7385 137.668 11.6459Z" fill="#222222"/>
</svg>
