<svg width="21" height="28" viewBox="0 0 21 28" fill="none" xmlns="http://www.w3.org/2000/svg">
<path d="M5.4337 21.823C6.88156 23.8605 8.29202 25.6432 9.21951 26.7812C9.42131 27.0321 9.60978 27.259 9.78128 27.4655L10.0584 27.8009C10.1728 27.9255 10.3346 27.996 10.5039 27.9948C10.6731 27.9937 10.834 27.9212 10.9468 27.7951L11.2187 27.4655C11.3902 27.2589 11.5786 27.032 11.7781 26.7841C12.7085 25.6449 14.1184 23.8622 15.5663 21.8258C16.9643 19.8959 18.2226 17.8685 19.3316 15.7592C20.4399 13.5822 21 11.8182 21 10.5179C20.9912 7.7396 19.8828 5.07773 17.9171 3.11429L17.9084 3.1067L17.9031 3.10147C15.9371 1.13746 13.2787 0.0236705 10.4999 0C7.71372 0 5.04177 1.10734 3.0724 3.07824C1.0999 5.05087 -0.00571991 7.72786 2.22555e-05 10.5175C2.22555e-05 11.8177 0.561159 13.5817 1.66895 15.7599C2.77782 17.8679 4.036 19.8942 5.4337 21.823ZM6.37523 5.79186C7.46681 4.69441 8.95205 4.07917 10.4999 4.08331C10.8221 4.08331 11.0833 4.34445 11.0833 4.66665C11.0833 4.98879 10.8221 5.24999 10.4999 5.24999C8.27365 5.25006 6.35736 6.82284 5.92313 9.00639C5.48889 11.1899 6.65755 13.3762 8.71439 14.2281C10.7712 15.08 13.1435 14.3604 14.3804 12.5092C15.6172 10.658 15.3742 8.19094 13.7998 6.61676C13.6482 6.47027 13.5874 6.2534 13.6408 6.04943C13.6942 5.84546 13.8534 5.68621 14.0574 5.6328C14.2614 5.5794 14.4782 5.64027 14.6247 5.79186C16.2931 7.46015 16.7921 9.96916 15.8893 12.1489C14.9864 14.3287 12.8593 15.75 10.5 15.75C8.14069 15.75 6.0136 14.3287 5.11074 12.1489C4.20775 9.96922 4.70687 7.46015 6.37523 5.79186Z" fill="#66A91E"/>
</svg>
