<svg width="17" height="19" viewBox="0 0 17 19" fill="none" xmlns="http://www.w3.org/2000/svg">
<path fill-rule="evenodd" clip-rule="evenodd" d="M8.50001 0C7.23976 0 6.194 1.05406 6.194 2.35135H6.1672L6.194 2.43243C6.194 2.75675 6.27444 3.08109 6.40851 3.35136C6.70346 4.5946 6.86436 5.72974 6.97161 6.78379C6.08675 6.16217 5.17508 5.43244 4.23659 4.54055C4.0489 4.29731 3.83438 4.08108 3.56625 3.8919H3.53944C3.19086 3.67568 2.76184 3.54055 2.33281 3.54055C1.04575 3.54055 0 4.56757 0 5.86486C0 6.75676 0.509459 7.54055 1.23343 7.91893L1.20663 7.94595L1.28706 7.97297C1.52839 8.08108 1.79653 8.16217 2.09148 8.1892C3.32492 8.56757 4.42429 8.99999 5.38959 9.45945C4.39747 9.91891 3.2981 10.3513 2.03785 10.7297C1.79653 10.7568 1.55521 10.8378 1.3407 10.9459L1.23343 10.973H1.26026C0.509468 11.3784 0 12.1622 0 13.0541C0 14.3514 1.04575 15.3784 2.33281 15.3784C2.78865 15.3784 3.21766 15.2432 3.56625 15.027L3.59305 15C3.83438 14.8378 4.0489 14.6487 4.20979 14.4054C5.17509 13.4865 6.08675 12.7568 6.97161 12.1351C6.86436 13.2432 6.67666 14.4324 6.3817 15.7297C6.27445 15.973 6.22082 16.2162 6.194 16.4865L6.1672 16.5946H6.194C6.194 16.6216 6.194 16.6486 6.194 16.6757C6.194 17.9459 7.23976 19 8.50001 19C9.78708 19 10.8328 17.9459 10.8328 16.6757C10.8328 16.6486 10.8328 16.6216 10.8328 16.5946C10.806 16.2432 10.7256 15.9189 10.5915 15.6486C10.2965 14.3513 10.1088 13.1892 10.0284 12.0811C10.9401 12.7027 11.8517 13.4595 12.817 14.3784C12.9779 14.5946 13.1656 14.7838 13.4069 14.9459L13.4606 15H13.4874C13.836 15.2162 14.2382 15.3514 14.694 15.3514C15.9811 15.3514 17 14.2973 17 13C17 12.1081 16.5173 11.3513 15.7934 10.9459H15.7666C15.4984 10.7838 15.2035 10.7027 14.8817 10.6757C13.6483 10.2973 12.5489 9.86486 11.5836 9.43243C12.5757 8.94595 13.6751 8.54054 14.9622 8.13514C15.2035 8.10811 15.4716 8.05406 15.6861 7.94595L15.7398 7.91893H15.7129C16.4905 7.54055 17 6.75676 17 5.83784C17 4.54055 15.9811 3.48649 14.694 3.48649C14.2114 3.48649 13.7823 3.64865 13.4069 3.8919V3.86488C13.3533 3.8919 13.3265 3.91892 13.2997 3.97297C13.1388 4.08108 13.0047 4.21622 12.8975 4.35136C11.9054 5.2973 10.9669 6.08108 10.0284 6.72973C10.1356 5.70271 10.2965 4.62162 10.5647 3.43243C10.7255 3.10811 10.8328 2.72973 10.8328 2.35135C10.8328 1.05406 9.78708 0 8.50001 0V0Z" fill="#69AE1D"/>
</svg>
