<svg width="233" height="161" viewBox="0 0 233 161" fill="none" xmlns="http://www.w3.org/2000/svg">
<path d="M233 41.5546C232.995 37.8463 231.954 34.0852 229.653 30.9848L211.192 6.22027C208.099 2.10396 203.394 0.00832701 198.692 0C195.894 0 193.045 0.752208 190.527 2.39818L172.526 14.1393C170.633 15.405 167.387 16.2738 164.252 16.2515C161.816 16.2626 159.463 15.7519 157.909 14.947L140.281 5.99545C137.437 4.56043 134.268 3.97198 131.08 3.96643C126.503 3.98863 121.867 5.1683 118.142 7.87458L116.084 9.38732C114.44 8.52686 111.928 7.21674 109.081 5.73176C105.669 3.97754 101.655 3.26974 97.6014 3.25586C93.9397 3.26696 90.2781 3.85818 87.0639 5.2821L75.057 10.653C73.1031 11.5412 69.9948 12.1213 66.9077 12.1075C63.8206 12.1213 60.7176 11.5412 58.7636 10.653L46.7462 5.27933C44.5539 4.29951 42.2108 3.88039 39.8889 3.87761C37.2148 3.88039 34.5566 4.43275 32.0864 5.48195C29.6188 6.5367 27.3286 8.09385 25.5044 10.2311L3.62459 35.9199C1.19938 38.7595 -0.00527783 42.3345 1.73802e-05 45.8541C-0.00527783 50.0509 1.70772 54.2616 5.01194 57.2121L25.4223 75.4677L15.74 86.0569C13.0713 88.9769 11.7422 92.7629 11.7422 96.5073C11.7369 100.49 13.246 104.512 16.2351 107.474L18.1997 109.431C20.0503 111.271 22.2743 112.442 24.6016 113.067C23.434 115.318 22.7959 117.786 22.8012 120.259C22.7959 124.245 24.305 128.264 27.2889 131.228L29.2534 133.191C32.0572 135.977 35.6924 137.365 39.2746 137.362C41.1994 137.365 43.1269 136.96 44.9378 136.166C45.5733 138.87 46.8865 141.44 48.9516 143.494L50.9214 145.459C53.7252 148.246 57.3551 149.634 60.9426 149.631C63.7464 149.634 66.5635 148.768 68.9887 147.086C69.6983 149.478 70.9135 151.746 72.7642 153.589L74.734 155.554C77.5325 158.341 81.1677 159.729 84.7499 159.726C88.5651 159.729 92.4174 158.158 95.2636 155.043L103.821 145.675L115.446 156.956C118.229 159.662 121.801 161.008 125.327 161C129.201 161.008 133.108 159.382 135.96 156.181L137.816 154.097C139.418 152.293 140.464 150.158 141.07 147.929L145.573 152.287C148.361 154.982 151.928 156.323 155.449 156.32C159.328 156.323 163.246 154.696 166.1 151.493L167.946 149.412C170.077 147.024 171.276 144.068 171.647 141.048C172.836 141.368 174.04 141.584 175.256 141.584C179.134 141.584 183.042 139.96 185.899 136.76L187.75 134.678C190.336 131.772 191.623 128.044 191.618 124.369C191.618 123.229 191.462 122.093 191.221 120.972C194.438 120.525 197.556 119.021 199.929 116.351L201.785 114.266C204.371 111.36 205.653 107.632 205.653 103.954C205.658 99.9075 204.101 95.8244 201.03 92.8489L197.559 89.4876L228.886 53.1763C231.697 49.9065 232.995 45.6986 233 41.5546ZM21.7024 101.495C20.3416 100.146 19.6691 98.3503 19.6638 96.5073C19.6691 94.778 20.2595 93.0904 21.4748 91.7609L41.3053 70.0662C42.5974 68.6534 44.321 67.9456 46.0896 67.9428C47.7443 67.9456 49.362 68.5701 50.6408 69.8331L52.6 71.7927C52.6 71.7927 54.6281 74.9375 54.6334 76.7834C54.6281 78.1656 54.2309 79.5118 53.4605 80.6776C53.3943 80.747 32.0572 104.06 32.0572 104.06C30.9241 104.901 29.5844 105.334 28.2209 105.339C26.5608 105.334 24.9378 104.712 23.6696 103.452L21.7024 101.495ZM39.2799 129.096C37.6199 129.094 36.0022 128.469 34.7287 127.209L32.7589 125.247C31.4086 123.903 30.7255 122.099 30.7255 120.256C30.7255 118.527 31.3212 116.839 32.5312 115.51C32.5312 115.51 58.9649 86.662 59.1873 86.3844C60.4502 85.1104 62.0784 84.4525 63.7597 84.4498C65.4197 84.4525 67.0374 85.0743 68.3109 86.3372L70.2807 88.3024C71.6363 89.6458 72.3088 91.4445 72.3141 93.2903C72.3088 95.0195 71.7131 96.7099 70.5031 98.0394L44.0588 126.979C42.7695 128.386 41.0485 129.091 39.2799 129.096ZM60.9479 141.365C59.2879 141.362 57.6702 140.738 56.3967 139.475L54.4216 137.512C53.066 136.166 52.3882 134.367 52.3882 132.524C52.3882 130.981 52.8886 129.485 53.847 128.239L72.2559 108.096C73.4976 106.922 75.0544 106.303 76.6668 106.303C78.3268 106.305 79.9445 106.927 81.218 108.19L83.1931 110.155C84.5434 111.499 85.2212 113.297 85.2265 115.14C85.2212 116.872 84.6202 118.563 83.4155 119.89L65.7242 139.244C64.4375 140.654 62.7165 141.359 60.9479 141.365ZM89.5315 149.339C88.2448 150.749 86.5212 151.454 84.7526 151.46C83.0925 151.457 81.4748 150.833 80.2013 149.57L78.2315 147.607C76.8812 146.264 76.2034 144.463 76.1981 142.619C76.2034 140.887 76.7991 139.197 78.0091 137.873L89.1741 125.652C90.4661 124.242 92.1897 123.534 93.9583 123.531C95.613 123.534 97.236 124.156 98.5095 125.421L100.485 127.384C101.835 128.727 102.507 130.526 102.513 132.369C102.507 134.101 101.912 135.791 100.702 137.118L89.5315 149.339ZM195.984 108.645L194.133 110.727C192.841 112.176 191.088 112.909 189.293 112.911C187.665 112.909 186.071 112.309 184.806 111.082L153.617 80.8442L148.224 86.8979L181.607 119.32C182.997 120.669 183.696 122.501 183.707 124.372C183.696 126.076 183.122 127.736 181.949 129.058L180.103 131.139C178.811 132.588 177.059 133.318 175.264 133.324C173.635 133.318 172.036 132.716 170.781 131.497L139.584 101.259L134.197 107.313L161.883 134.154C163.217 135.494 163.9 137.279 163.9 139.111C163.9 140.81 163.326 142.472 162.153 143.791L160.302 145.873C159.015 147.321 157.257 148.054 155.457 148.06C153.823 148.054 152.229 147.452 150.969 146.233L123.339 119.49L123.328 119.484L117.951 125.549L118.059 125.657L131.898 139.047C133.124 140.368 133.76 142.062 133.765 143.813C133.76 145.503 133.191 147.158 132.018 148.476L130.167 150.561C128.875 152.01 127.128 152.737 125.338 152.742C123.709 152.737 122.116 152.137 120.855 150.913L108.806 139.217C109.855 137.06 110.44 134.72 110.44 132.372C110.445 128.389 108.936 124.372 105.952 121.405L103.977 119.44C101.178 116.656 97.5484 115.265 93.9662 115.271C93.6882 115.271 93.4076 115.337 93.1349 115.354C93.1349 115.285 93.1508 115.213 93.1508 115.143C93.1561 111.16 88.6631 104.171 88.6631 104.171L86.6933 102.211C84.599 100.13 82.0441 98.8305 79.3858 98.3087C79.9339 96.6821 80.2437 94.989 80.2437 93.293C80.2437 89.31 78.7398 85.2908 75.756 82.3264L73.7862 80.3612C70.9823 77.5744 67.3525 76.1838 63.7703 76.1866C63.3519 76.1866 62.9389 76.2754 62.5232 76.3143C62.4094 72.4894 60.94 68.6673 58.0806 65.8195L56.116 63.8598C53.3122 61.0703 49.6824 59.6797 46.1001 59.6825C42.2796 59.6797 38.4327 61.2507 35.5865 64.365L30.9055 69.4861L10.1695 50.9446C8.67887 49.6068 7.93489 47.7582 7.9296 45.8596C7.93489 44.2692 8.45118 42.712 9.55258 41.4185L31.4324 15.7297C32.3008 14.7083 33.5849 13.784 35.0887 13.1428C36.5926 12.5016 38.3003 12.1491 39.8968 12.1519C41.2868 12.1519 42.5921 12.4156 43.6352 12.8874L55.6474 18.2611C59.0337 19.7572 62.9654 20.3706 66.9156 20.3845C70.8711 20.3706 74.7975 19.7572 78.1838 18.2611L90.1907 12.8902C92.0414 12.0436 94.8346 11.519 97.612 11.5301C100.683 11.5107 103.76 12.1769 105.544 13.1317C106.677 13.7229 107.752 14.2836 108.75 14.8082L96.5053 23.8319C92.5709 26.7325 90.4502 31.3456 90.4555 36.0004C90.4502 39.0814 91.3822 42.2179 93.2778 44.8798L94.8902 47.1531C97.9615 51.4332 102.751 53.6343 107.538 53.6454C110.241 53.6454 112.995 52.9292 115.449 51.386L122.772 46.7756C124.265 45.818 126.521 45.2129 128.854 45.224C131.594 45.2073 134.355 46.0567 136.016 47.3363L156.275 62.5636C160.784 65.9499 168.128 72.2313 172.198 76.1838L195.648 98.9138C197.038 100.266 197.737 102.089 197.742 103.963C197.739 105.661 197.159 107.324 195.984 108.645ZM223.005 47.6499L191.766 83.8641L177.583 70.119C173.14 65.8195 165.814 59.5492 160.9 55.8493L140.646 40.6219C137.212 38.0711 133.008 36.9691 128.851 36.9525C125.314 36.9636 121.75 37.7713 118.674 39.6921L111.356 44.3025C110.233 45.0103 108.909 45.3711 107.535 45.3739C105.078 45.3822 102.619 44.1803 101.247 42.2235L99.6348 39.9474C98.7769 38.7345 98.3718 37.3688 98.3665 35.9921C98.3771 33.9104 99.2932 31.8897 101.067 30.5768L122.719 14.6278C124.591 13.2066 127.922 12.2102 131.086 12.2352C133.283 12.224 135.383 12.6876 136.82 13.4315L154.448 22.383C157.453 23.8957 160.845 24.5147 164.258 24.523C168.642 24.5008 173.074 23.5016 176.725 21.1506L194.731 9.40675C195.881 8.65454 197.26 8.26595 198.698 8.26595C201.128 8.2604 203.564 9.41507 204.943 11.2998L223.405 36.0643C224.469 37.4826 225.086 39.4839 225.086 41.5573C225.089 43.8778 224.308 46.1594 223.005 47.6499Z" fill="#E2E2E2"/>
</svg>
